# This file uses centimeters as units for non-parametric coordinates.

mtllib ban.mtl
g default
v -0.311912 -0.077662 0.500000
v -0.207941 -0.077662 0.500000
v -0.103971 -0.077662 0.500000
v 0.000000 -0.077662 0.500000
v 0.103971 -0.077662 0.500000
v 0.207941 -0.077662 0.500000
v 0.311912 -0.077662 0.500000
v -0.311912 0.077662 0.500000
v -0.207941 0.077662 0.500000
v -0.103971 0.077662 0.500000
v 0.000000 0.077662 0.500000
v 0.103971 0.077662 0.500000
v 0.207941 0.077662 0.500000
v 0.311912 0.077662 0.500000
v -0.311912 0.077662 -0.500000
v -0.207941 0.077662 -0.522391
v -0.103971 0.077662 -0.538675
v 0.000000 0.077662 -0.546817
v 0.103971 0.077662 -0.538675
v 0.207941 0.077662 -0.522391
v 0.311912 0.077662 -0.500000
v -0.311912 -0.077662 -0.555253
v -0.207941 -0.077662 -0.577644
v -0.103971 -0.077662 -0.593928
v 0.000000 -0.077662 -0.602071
v 0.103971 -0.077662 -0.593928
v 0.207941 -0.077662 -0.577644
v 0.311912 -0.077662 -0.555253
v -0.311912 -0.051920 -0.558694
v -0.311912 -0.051920 0.500000
v -0.207941 -0.051920 0.500000
v -0.103971 -0.051920 0.500000
v 0.000000 -0.051920 0.500000
v 0.103971 -0.051920 0.500000
v 0.207941 -0.051920 0.500000
v 0.311912 -0.051920 0.500000
v 0.311912 -0.051920 -0.558694
v 0.207941 -0.051920 -0.581085
v 0.103971 -0.051920 -0.597369
v 0.000000 -0.051920 -0.605511
v -0.103971 -0.051920 -0.597369
v -0.207941 -0.051920 -0.581085
vt 0.375000 0.000000
vt 0.416667 0.000000
vt 0.458333 0.000000
vt 0.500000 0.000000
vt 0.541667 0.000000
vt 0.583333 0.000000
vt 0.625000 0.000000
vt 0.375000 0.250000
vt 0.416667 0.250000
vt 0.458333 0.250000
vt 0.500000 0.250000
vt 0.541667 0.250000
vt 0.583333 0.250000
vt 0.625000 0.250000
vt 0.375000 0.500000
vt 0.416667 0.500000
vt 0.458333 0.500000
vt 0.500000 0.500000
vt 0.541667 0.500000
vt 0.583333 0.500000
vt 0.625000 0.500000
vt 0.375000 0.750000
vt 0.416667 0.750000
vt 0.458333 0.750000
vt 0.500000 0.750000
vt 0.541667 0.750000
vt 0.583333 0.750000
vt 0.625000 0.750000
vt 0.375000 1.000000
vt 0.416667 1.000000
vt 0.458333 1.000000
vt 0.500000 1.000000
vt 0.541667 1.000000
vt 0.583333 1.000000
vt 0.625000 1.000000
vt 0.875000 0.000000
vt 0.875000 0.250000
vt 0.125000 0.000000
vt 0.125000 0.250000
vt 0.125000 0.041433
vt 0.375000 0.708567
vt 0.375000 0.041433
vt 0.416667 0.041433
vt 0.458333 0.041433
vt 0.500000 0.041433
vt 0.541667 0.041433
vt 0.583333 0.041433
vt 0.625000 0.041433
vt 0.625000 0.708567
vt 0.875000 0.041433
vt 0.583333 0.708567
vt 0.541667 0.708567
vt 0.500000 0.708567
vt 0.458333 0.708567
vt 0.416667 0.708567
vn 0.000000 0.000000 1.000000
vn 0.000000 0.000000 1.000000
vn 0.000000 0.000000 1.000000
vn 0.000000 0.000000 1.000000
vn 0.000000 0.000000 1.000000
vn 0.000000 0.000000 1.000000
vn 0.000000 0.000000 1.000000
vn 0.000000 0.000000 1.000000
vn 0.000000 0.000000 1.000000
vn 0.000000 0.000000 1.000000
vn 0.000000 0.000000 1.000000
vn 0.000000 0.000000 1.000000
vn 0.000000 0.000000 1.000000
vn 0.000000 0.000000 1.000000
vn 0.000000 1.000000 0.000000
vn 0.000000 1.000000 0.000000
vn 0.000000 1.000000 0.000000
vn 0.000000 1.000000 0.000000
vn 0.000000 1.000000 0.000000
vn 0.000000 1.000000 0.000000
vn 0.000000 1.000000 0.000000
vn 0.000000 1.000000 0.000000
vn 0.000000 1.000000 0.000000
vn 0.000000 1.000000 0.000000
vn 0.000000 1.000000 0.000000
vn 0.000000 1.000000 0.000000
vn 0.000000 1.000000 0.000000
vn 0.000000 1.000000 0.000000
vn -0.192504 0.404880 -0.893876
vn -0.167174 0.406791 -0.898095
vn -0.172486 0.330092 -0.928056
vn -0.198831 0.328738 -0.923254
vn -0.106510 0.410250 -0.905732
vn -0.109900 0.333071 -0.936475
vn 0.000000 0.412597 -0.910914
vn 0.000000 0.335049 -0.942201
vn 0.106510 0.410250 -0.905732
vn 0.109900 0.333071 -0.936475
vn 0.167174 0.406791 -0.898095
vn 0.172486 0.330092 -0.928056
vn 0.192504 0.404880 -0.893876
vn 0.198831 0.328738 -0.923254
vn 0.000000 -1.000000 0.000000
vn 0.000000 -1.000000 0.000000
vn 0.000000 -1.000000 0.000000
vn 0.000000 -1.000000 0.000000
vn 0.000000 -1.000000 0.000000
vn 0.000000 -1.000000 0.000000
vn 0.000000 -1.000000 0.000000
vn 0.000000 -1.000000 0.000000
vn 0.000000 -1.000000 0.000000
vn 0.000000 -1.000000 0.000000
vn 0.000000 -1.000000 0.000000
vn 0.000000 -1.000000 0.000000
vn 0.000000 -1.000000 0.000000
vn 0.000000 -1.000000 0.000000
vn 1.000000 0.000000 0.000000
vn 1.000000 0.000000 0.000000
vn 1.000000 0.000000 0.000000
vn 1.000000 0.000000 0.000000
vn -1.000000 0.000000 0.000000
vn -1.000000 0.000000 0.000000
vn -1.000000 0.000000 0.000000
vn -1.000000 0.000000 0.000000
vn -1.000000 0.000000 0.000000
vn -1.000000 0.000000 0.000000
vn 0.000000 0.000000 1.000000
vn 0.000000 0.000000 1.000000
vn 0.000000 0.000000 1.000000
vn 0.000000 0.000000 1.000000
vn 0.000000 0.000000 1.000000
vn 0.000000 0.000000 1.000000
vn 0.000000 0.000000 1.000000
vn 1.000000 0.000000 0.000000
vn 1.000000 0.000000 0.000000
vn 0.208757 -0.129569 -0.969346
vn 0.181339 -0.130292 -0.974751
vn 0.115688 -0.131599 -0.984529
vn 0.000000 -0.132488 -0.991185
vn -0.115688 -0.131599 -0.984529
vn -0.181339 -0.130292 -0.974751
vn -0.208757 -0.129569 -0.969346
s 1
g pCube1
usemtl initialShadingGroup
f 30/42/1 31/43/2 9/9/3 8/8/4
f 31/43/2 32/44/5 10/10/6 9/9/3
f 32/44/5 33/45/7 11/11/8 10/10/6
f 33/45/7 34/46/9 12/12/10 11/11/8
f 34/46/9 35/47/11 13/13/12 12/12/10
f 35/47/11 36/48/13 14/14/14 13/13/12
s 2
f 8/8/15 9/9/16 16/16/17 15/15/18
f 9/9/16 10/10/19 17/17/20 16/16/17
f 10/10/19 11/11/21 18/18/22 17/17/20
f 11/11/21 12/12/23 19/19/24 18/18/22
f 12/12/23 13/13/25 20/20/26 19/19/24
f 13/13/25 14/14/27 21/21/28 20/20/26
s 3
f 15/15/29 16/16/30 42/55/31 29/41/32
f 16/16/30 17/17/33 41/54/34 42/55/31
f 17/17/33 18/18/35 40/53/36 41/54/34
f 18/18/35 19/19/37 39/52/38 40/53/36
f 19/19/37 20/20/39 38/51/40 39/52/38
f 20/20/39 21/21/41 37/49/42 38/51/40
s 4
f 22/22/43 23/23/44 2/30/45 1/29/46
f 23/23/44 24/24/47 3/31/48 2/30/45
f 24/24/47 25/25/49 4/32/50 3/31/48
f 25/25/49 26/26/51 5/33/52 4/32/50
f 26/26/51 27/27/53 6/34/54 5/33/52
f 27/27/53 28/28/55 7/35/56 6/34/54
s 5
f 36/48/57 37/50/58 21/37/59 14/14/60
s 6
f 29/40/61 30/42/62 8/8/63 15/39/64
f 22/38/65 1/1/66 30/42/62 29/40/61
s 1
f 1/1/67 2/2/68 31/43/2 30/42/1
f 2/2/68 3/3/69 32/44/5 31/43/2
f 3/3/69 4/4/70 33/45/7 32/44/5
f 4/4/70 5/5/71 34/46/9 33/45/7
f 5/5/71 6/6/72 35/47/11 34/46/9
f 6/6/72 7/7/73 36/48/13 35/47/11
s 5
f 7/7/74 28/36/75 37/50/58 36/48/57
s 3
f 38/51/40 37/49/42 28/28/76 27/27/77
f 39/52/38 38/51/40 27/27/77 26/26/78
f 40/53/36 39/52/38 26/26/78 25/25/79
f 41/54/34 40/53/36 25/25/79 24/24/80
f 42/55/31 41/54/34 24/24/80 23/23/81
f 29/41/32 42/55/31 23/23/81 22/22/82
